<svg width="61" height="40" viewBox="0 0 61 40" fill="none" xmlns="http://www.w3.org/2000/svg">
<path d="M0 10C0 4.47715 4.50485 0 10.0619 0H50.9381C56.4952 0 61 4.47715 61 10V30C61 35.5228 56.4952 40 50.9381 40H10.0619C4.50485 40 0 35.5228 0 30V10Z" fill="#FF261B"/>
<path fill-rule="evenodd" clip-rule="evenodd" d="M16.3128 29.7495H12.5724V10H20.0827C23.8254 10 27.0253 13.0583 27.0253 16.8028C27.0253 20.6173 23.8799 23.5921 20.0827 23.5921H16.3128V29.7495ZM16.3151 20.1072H20.085C21.9291 20.1072 23.2872 18.5927 23.2872 16.8006C23.2872 15.0378 21.9019 13.5098 20.085 13.5098H16.3151V20.1072Z" fill="white"/>
<path fill-rule="evenodd" clip-rule="evenodd" d="M34.2111 29.9992C30.2345 29.9992 27.4343 26.5278 27.4343 22.7269C27.4343 19.0366 30.3594 15.4004 34.2383 15.4004C36.096 15.4004 37.6199 16.1994 38.7145 17.6733V15.6464H42.2483V29.7509H38.7145V27.6857C37.6199 29.1731 36.0824 29.9992 34.2111 29.9992ZM34.9174 26.7197C37.1771 26.7197 38.894 24.9433 38.894 22.7111C38.894 20.5082 37.1612 18.6754 34.9174 18.6754C32.6577 18.6754 30.968 20.5082 30.968 22.7111C30.968 24.9298 32.6599 26.7197 34.9174 26.7197Z" fill="white"/>
<path d="M48.4278 10H44.8804V13.8709H48.4278V10Z" fill="white"/>
<path d="M48.4278 15.6472H44.8804V29.7517H48.4278V15.6472Z" fill="white"/>
</svg>
