<svg width="48" height="48" viewBox="0 0 48 48" fill="none" xmlns="http://www.w3.org/2000/svg">
<path d="M33.5506 7.28564H6.48934C4.73104 7.28564 3.30566 8.71104 3.30566 10.4693V29.5714C3.30566 31.3296 4.73104 32.755 6.48934 32.755H33.5506C35.3089 32.755 36.7342 31.3296 36.7342 29.5714V10.4693C36.7342 8.71104 35.3089 7.28564 33.5506 7.28564Z" stroke="#FF4432" stroke-width="3" stroke-linecap="round" stroke-linejoin="round"/>
<path d="M12.8564 40.7141H41.5095C42.3538 40.7141 43.1637 40.3785 43.7607 39.7816C44.3576 39.1847 44.6932 38.3747 44.6932 37.5304V21.6121" stroke="#FF4432" stroke-width="3" stroke-linecap="round" stroke-linejoin="round"/>
<path d="M9.75197 20.3599C9.3124 20.3599 8.95605 20.0036 8.95605 19.564C8.95605 19.1244 9.3124 18.7681 9.75197 18.7681" stroke="#FF4432" stroke-width="3" stroke-linecap="round" stroke-linejoin="round"/>
<path d="M9.75195 20.3599C10.1915 20.3599 10.5479 20.0036 10.5479 19.564C10.5479 19.1244 10.1915 18.7681 9.75195 18.7681" stroke="#FF4432" stroke-width="3" stroke-linecap="round" stroke-linejoin="round"/>
<path d="M30.2871 20.3599C29.8476 20.3599 29.4912 20.0036 29.4912 19.564C29.4912 19.1244 29.8476 18.7681 30.2871 18.7681" stroke="#FF4432" stroke-width="3" stroke-linecap="round" stroke-linejoin="round"/>
<path d="M30.2871 20.3599C30.7267 20.3599 31.083 20.0036 31.083 19.564C31.083 19.1244 30.7267 18.7681 30.2871 18.7681" stroke="#FF4432" stroke-width="3" stroke-linecap="round" stroke-linejoin="round"/>
<path d="M20.0196 24C22.2175 24 23.9992 22.2182 23.9992 20.0204C23.9992 17.8225 22.2175 16.0408 20.0196 16.0408C17.8218 16.0408 16.04 17.8225 16.04 20.0204C16.04 22.2182 17.8218 24 20.0196 24Z" stroke="#FF4432" stroke-width="3" stroke-linecap="round" stroke-linejoin="round"/>
</svg>
