<svg width="48" height="48" viewBox="0 0 48 48" fill="none" xmlns="http://www.w3.org/2000/svg">
<path d="M21.9287 3.30612H41.9935C43.486 3.30612 44.6958 4.51601 44.6958 6.00849V27.5896C44.6958 29.0821 43.486 30.292 41.9935 30.292H25.5912" stroke="#FF4432" stroke-width="3" stroke-linecap="round" stroke-linejoin="round"/>
<path d="M11.7382 14.4524C14.8161 14.4524 17.3113 11.9572 17.3113 8.87924C17.3113 5.80129 14.8161 3.30612 11.7382 3.30612C8.66021 3.30612 6.16504 5.80129 6.16504 8.87924C6.16504 11.9572 8.66021 14.4524 11.7382 14.4524Z" stroke="#FF4432" stroke-width="3" stroke-linecap="round" stroke-linejoin="round"/>
<path d="M30.3669 19.3119C30.3669 17.5053 28.9024 16.0408 27.0958 16.0408H11.739C7.08141 16.0408 3.30567 19.8165 3.30566 24.4741V31.9592H6.91993L8.1247 44.6939H15.3533L18.1296 22.583H27.0958C28.9024 22.583 30.3669 21.1185 30.3669 19.3119Z" stroke="#FF4432" stroke-width="3" stroke-linecap="round" stroke-linejoin="round"/>
</svg>
