<svg width="69" height="40" viewBox="0 0 69 40" fill="none" xmlns="http://www.w3.org/2000/svg">
<rect width="68.8136" height="40" rx="16" fill="#FF4432"/>
<path d="M20.414 19.5762C21.2892 19.5762 21.956 19.3826 22.4144 18.9954C22.8937 18.5879 23.1333 17.9765 23.1333 17.1614C23.1333 16.3871 22.8833 15.7961 22.3832 15.3885C21.9039 14.9606 21.1954 14.7466 20.2578 14.7466C19.9244 14.7466 19.643 14.7568 19.4138 14.7772C19.2055 14.7772 18.9867 14.7976 18.7574 14.8383V19.5762H20.414ZM18.7887 29.3882C18.5595 29.4494 18.1948 29.5105 17.6947 29.5716C17.2155 29.6328 16.7362 29.6633 16.2569 29.6633C15.7777 29.6633 15.3505 29.6226 14.9754 29.5411C14.6212 29.4799 14.3191 29.3577 14.069 29.1743C13.8189 28.9909 13.6314 28.7361 13.5064 28.4101C13.3814 28.084 13.3188 27.6561 13.3188 27.1263V12.7292C13.3188 12.3013 13.4335 11.9752 13.6627 11.7511C13.9127 11.5065 14.2461 11.3129 14.6629 11.1703C15.3713 10.9257 16.1736 10.7525 17.0696 10.6506C17.9865 10.5284 18.9033 10.4672 19.8202 10.4672C22.6957 10.4672 24.8941 11.0684 26.4152 12.2707C27.9364 13.473 28.697 15.1032 28.697 17.1614C28.697 18.1599 28.5303 19.0668 28.1969 19.8819C27.8843 20.6766 27.405 21.3695 26.7591 21.9604C26.1339 22.531 25.3317 22.9793 24.3523 23.3054C23.3938 23.6111 22.279 23.7639 21.0079 23.7639H18.7887V29.3882Z" fill="white"/>
<path d="M37.1781 26.2093C37.5324 26.2093 37.9179 26.1787 38.3346 26.1176C38.7722 26.036 39.0952 25.9342 39.3036 25.8119V23.3665L37.0531 23.5499C36.4697 23.5907 35.9904 23.7129 35.6153 23.9167C35.2402 24.1205 35.0527 24.4262 35.0527 24.8337C35.0527 25.2413 35.209 25.5775 35.5216 25.8425C35.855 26.087 36.4071 26.2093 37.1781 26.2093ZM36.9281 14.1964C38.0533 14.1964 39.0744 14.3085 39.9912 14.5327C40.9289 14.7568 41.7207 15.1032 42.3667 15.5719C43.0335 16.0202 43.544 16.601 43.8982 17.3143C44.2525 18.0071 44.4296 18.8324 44.4296 19.7902V26.6372C44.4296 27.167 44.2733 27.6052 43.9608 27.9516C43.669 28.2776 43.3148 28.5629 42.898 28.8075C41.5436 29.6022 39.637 29.9996 37.1781 29.9996C36.0737 29.9996 35.0735 29.8977 34.1775 29.6939C33.3024 29.4901 32.5418 29.1844 31.8958 28.7769C31.2707 28.3693 30.781 27.8497 30.4268 27.218C30.0934 26.5863 29.9267 25.8526 29.9267 25.0171C29.9267 23.6111 30.3538 22.531 31.2082 21.777C32.0625 21.0231 33.3857 20.5544 35.1777 20.371L39.2723 19.943V19.729C39.2723 19.1381 39.0014 18.7203 38.4596 18.4758C37.9387 18.2109 37.1781 18.0784 36.1779 18.0784C35.3861 18.0784 34.6151 18.1599 33.865 18.323C33.1148 18.486 32.4376 18.6898 31.8333 18.9343C31.5624 18.7509 31.3332 18.4758 31.1457 18.109C30.9581 17.7218 30.8644 17.3244 30.8644 16.9169C30.8644 16.3871 30.9894 15.9693 31.2394 15.6636C31.5103 15.3376 31.9167 15.0625 32.4584 14.8383C33.0627 14.6142 33.7712 14.4511 34.5839 14.3493C35.4174 14.2474 36.1988 14.1964 36.9281 14.1964Z" fill="white"/>
<path d="M47.4614 10.5284C47.4614 9.75401 47.7219 9.10191 48.2428 8.57208C48.7846 8.04226 49.4931 7.77734 50.3683 7.77734C51.2435 7.77734 51.9415 8.04226 52.4624 8.57208C53.0042 9.10191 53.2751 9.75401 53.2751 10.5284C53.2751 11.3027 53.0042 11.9548 52.4624 12.4847C51.9415 13.0145 51.2435 13.2794 50.3683 13.2794C49.4931 13.2794 48.7846 13.0145 48.2428 12.4847C47.7219 11.9548 47.4614 11.3027 47.4614 10.5284ZM53.0251 29.4799C52.7958 29.5207 52.452 29.5716 51.9936 29.6328C51.556 29.7143 51.108 29.755 50.6496 29.755C50.1912 29.755 49.7744 29.7245 49.3993 29.6633C49.0451 29.6022 48.7429 29.4799 48.4929 29.2965C48.2428 29.1131 48.0449 28.8686 47.899 28.5629C47.774 28.2369 47.7115 27.8191 47.7115 27.3097V14.8689C47.9407 14.8281 48.2741 14.7772 48.7117 14.7161C49.1701 14.6345 49.6285 14.5938 50.087 14.5938C50.5454 14.5938 50.9517 14.6244 51.306 14.6855C51.681 14.7466 51.9936 14.8689 52.2436 15.0523C52.4937 15.2357 52.6812 15.4904 52.8063 15.8165C52.9521 16.1221 53.0251 16.5297 53.0251 17.0392V29.4799Z" fill="white"/>
</svg>
