<svg width="48" height="48" viewBox="0 0 48 48" fill="none" xmlns="http://www.w3.org/2000/svg">
<path d="M19.0009 35.3654C17.1653 34.0776 15.6545 32.38 14.588 30.4074C13.5216 28.4348 12.9288 26.241 12.8564 23.9998C12.9288 21.7541 13.5214 19.5558 14.5876 17.578C15.6538 15.6002 17.1646 13.8969 19.0009 12.6022" stroke="#FF4432" stroke-width="3" stroke-linecap="round" stroke-linejoin="round"/>
<path d="M11.9016 39.9184C9.33093 38.1148 7.21572 35.7376 5.72366 32.9744C4.23162 30.2113 3.40374 27.1387 3.30566 24C3.40499 20.8651 4.23009 17.796 5.71609 15.0339C7.2021 12.2718 9.30851 9.89203 11.8697 8.08163" stroke="#FF4432" stroke-width="3" stroke-linecap="round" stroke-linejoin="round"/>
<path d="M28.998 35.3654C30.8337 34.0776 32.3445 32.38 33.4109 30.4074C34.4774 28.4348 35.0702 26.241 35.1425 23.9998C35.0702 21.7541 34.4774 19.5558 33.4114 17.578C32.3451 15.6002 30.8344 13.8969 28.998 12.6022" stroke="#FF4432" stroke-width="3" stroke-linecap="round" stroke-linejoin="round"/>
<path d="M36.0977 39.9184C38.6682 38.1148 40.7834 35.7376 42.2756 32.9744C43.7674 30.2113 44.5955 27.1387 44.6936 24C44.5942 20.8651 43.769 17.796 42.2832 15.0339C40.7971 12.2718 38.6908 9.89203 36.1295 8.08163" stroke="#FF4432" stroke-width="3" stroke-linecap="round" stroke-linejoin="round"/>
<path d="M23.9991 25.5918C24.8782 25.5918 25.5909 24.8791 25.5909 24C25.5909 23.1209 24.8782 22.4082 23.9991 22.4082C23.1199 22.4082 22.4072 23.1209 22.4072 24C22.4072 24.8791 23.1199 25.5918 23.9991 25.5918Z" stroke="#FF4432" stroke-width="3" stroke-linecap="round" stroke-linejoin="round"/>
</svg>
